<svg width="132" height="139" viewBox="0 0 132 139" fill="none" xmlns="http://www.w3.org/2000/svg">
<rect width="131.659" height="138.691" fill="#E1251B"/>
<path fill-rule="evenodd" clip-rule="evenodd" d="M122.186 80.7314C123.125 81.1228 124.207 80.908 124.927 80.1872L124.967 80.1536C125.422 79.6845 125.67 79.053 125.658 78.3994C125.673 77.7294 125.408 77.0836 124.927 76.6182C124.458 76.1391 123.813 75.8742 123.144 75.8856C121.759 75.8856 120.637 77.0111 120.637 78.3994C120.635 79.4194 121.246 80.3399 122.186 80.7314ZM121.137 79.2013C120.802 78.3856 120.991 77.4479 121.615 76.8266V76.793C122.02 76.3842 122.57 76.1542 123.144 76.1542C123.718 76.1542 124.268 76.3842 124.672 76.793C125.513 77.6486 125.513 79.0225 124.672 79.8781C124.278 80.3057 123.725 80.5493 123.144 80.5502C122.264 80.5496 121.472 80.017 121.137 79.2013ZM123.587 77.4382C123.403 77.3587 123.203 77.3241 123.003 77.3374H122.588V78.3389H123.03C123.187 78.3453 123.343 78.3248 123.493 78.2784C123.648 78.2045 123.754 78.0555 123.773 77.8845C123.792 77.7134 123.721 77.5446 123.587 77.4382ZM123.821 77.1022C123.579 77.0254 123.324 76.9936 123.07 77.0081L122.078 77.0013V79.7705H122.561V78.6749H122.943C123.128 78.6661 123.313 78.6959 123.486 78.7623C123.696 78.9165 123.798 79.1785 123.747 79.4345V79.6563V79.7436H124.203V79.7033C124.195 79.6567 124.195 79.6088 124.203 79.5622V79.3538V79.1522C124.2 78.997 124.148 78.8467 124.056 78.722C123.942 78.5687 123.769 78.4709 123.58 78.4531C123.721 78.4341 123.858 78.3885 123.982 78.3187C124.165 78.2006 124.268 77.9914 124.25 77.7743C124.27 77.4802 124.096 77.2076 123.821 77.1022Z" fill="white"/>
<path d="M49.636 67.2818C49.6389 65.9237 50.3752 64.6736 51.56 64.0153V55.7212H43.341V78.1905C43.341 78.1905 40.6192 78.4191 40.0427 77.4714C39.4661 76.5237 39.6002 74.0704 39.6002 74.0704V55.7212H30.8047V74.0704C30.8047 74.0704 31.093 77.4714 32.8159 79.1382C34.3454 80.5212 36.356 81.2454 38.4136 81.1546H43.341V89.6907H51.56V70.5686C50.3688 69.9067 49.6315 68.6472 49.636 67.2818Z" fill="white"/>
<path d="M116.018 80.6266V76.8895H111.325C110.675 77.0302 109.998 76.8185 109.542 76.3317C108.657 75.4982 108.778 73.5423 108.778 73.5423V59.1856C108.763 58.3443 109.427 57.6483 110.266 57.6263C111.232 57.5647 112.094 58.2325 112.277 59.1856V70.4035C112.083 71.7663 111.241 72.9495 110.018 73.5759C110.018 73.5759 116.206 74.033 117.996 72.8097C119.376 71.832 120.247 70.2856 120.369 68.5954V62.7009C120.425 60.5253 119.447 58.4525 117.734 57.1154C115.495 55.2066 113.343 55.0991 111.077 55.0587C109.737 55.0184 104.95 54.9781 102.537 57.9018C101.416 59.2723 100.718 60.9396 100.525 62.7009V72.3123C100.625 74.2469 101.363 76.0935 102.624 77.5617C105.594 80.9223 108.832 80.6266 108.832 80.6266H116.018Z" fill="white"/>
<path d="M93.9219 80.6241V76.9072H89.2292C88.5805 77.044 87.9076 76.8327 87.4526 76.3493C86.5342 75.4957 86.6549 73.5465 86.6549 73.5465V59.1831C86.6399 58.3393 87.3082 57.6421 88.1498 57.6237C89.1179 57.556 89.9829 58.2267 90.161 59.1831V70.401C89.9638 71.7625 89.1222 72.9444 87.9018 73.5734C87.9018 73.5734 94.0828 74.0305 95.8727 72.8005C97.2568 71.8261 98.1287 70.2777 98.2459 68.5862V62.6983C98.2974 60.5237 97.3205 58.4527 95.6113 57.1129C93.3655 55.2041 91.2202 55.0965 88.9543 55.0495C87.6135 55.0495 82.8202 54.9756 80.4135 57.8993C79.2924 59.2692 78.5935 60.9368 78.4023 62.6983V72.3031C78.4987 74.2392 79.2345 76.0883 80.494 77.5592C83.4705 80.9198 86.7018 80.6241 86.7018 80.6241H93.9219Z" fill="white"/>
<path d="M71.4033 49.0202L63.1307 74.4402V49.0202H54.9385V64.0625C56.2169 64.6917 57.027 65.9952 57.027 67.4231C57.027 68.851 56.2169 70.1545 54.9385 70.7838V81.2085H57.0033C63.1307 81.2085 65.7184 81.5648 69.1105 78.0293C70.0512 76.8414 70.8249 75.5297 71.41 74.131L81.1173 49L71.4033 49.0202Z" fill="white"/>
<path d="M6.03952 49H14.6876V55.7818H18.6027V49H27.492V71.0459C27.492 71.0459 28.0887 75.9525 25.8764 78.7821C23.3222 82.0487 18.5892 81.5648 18.5892 81.5648V58.7862H14.6943V81.5648C14.6943 81.5648 11.5099 82.0957 8.11774 79.3198C5.53673 77.2026 6.03952 71.0459 6.03952 71.0459V49Z" fill="white"/>
</svg>
